<svg xmlns="http://www.w3.org/2000/svg" width="78" height="78" viewBox="0 0 78 78" fill="none"><metadata><rdf:RDF xmlns:rdf="http://www.w3.org/1999/02/22-rdf-syntax-ns#" xmlns:dc="http://purl.org/dc/elements/1.1/"><rdf:Description><dc:creator>RealFaviconGenerator</dc:creator><dc:source>https://realfavicongenerator.net</dc:source></rdf:Description></rdf:RDF></metadata><path d="M24.0418 24.0416C16.036 32.0473 16.036 45.0272 24.0418 53.033C32.0475 61.0387 45.0274 61.0387 53.0331 53.033C61.0389 45.0272 61.0389 32.0473 53.0331 24.0416C45.0274 16.0358 32.0475 16.0358 24.0418 24.0416ZM17.6778 17.6776C29.1983 6.15715 47.8766 6.15715 59.3971 17.6776C70.9176 29.1981 70.9176 47.8765 59.3971 59.3969C47.8766 70.9174 29.1983 70.9174 17.6778 59.3969C6.15733 47.8765 6.15733 29.1981 17.6778 17.6776Z" fill="#F9CC21"></path><path d="M6.36396 0.000180721L24.0416 17.6779L17.6777 24.0418L2.38419e-07 6.36414L6.36396 0.000180721Z" fill="#F9CC21"></path><path d="M59.3972 53.0331L77.0748 70.7108L70.7109 77.0748L53.0332 59.3971L59.3972 53.0331Z" fill="#F9CC21"></path><path d="M53.0332 17.6777L70.7109 0L77.0748 6.36396L59.3972 24.0416L53.0332 17.6777Z" fill="#F9CC21"></path><path d="M0 70.7106L17.6777 53.033L24.0416 59.3969L6.36396 77.0746L0 70.7106Z" fill="#F9CC21"></path></svg>